HIERARCHY
ROOT Hips
{
  OFFSET 3.86961 92.669 -2.18517
  CHANNELS 6 Xposition Yposition Zposition Zrotation Xrotation Yrotation
  JOINT ToSpine
  {
    OFFSET -2.69724 7.43032 -0.144315
    CHANNELS 3 Zrotation Xrotation Yrotation
    JOINT Spine
    {
      OFFSET -0.0310711 10.7595 1.96963
      CHANNELS 3 Zrotation Xrotation Yrotation
      JOINT Spine1
      {
        OFFSET 13.1342 3.43533 0.764692
        CHANNELS 3 Zrotation Xrotation Yrotation
        JOINT Neck
        {
          OFFSET 29.8703 7.82586 -0.130764
          CHANNELS 3 Zrotation Xrotation Yrotation
          JOINT Head
          {
            OFFSET 9.52751 0.295786 -0.907742
            CHANNELS 3 Zrotation Xrotation Yrotation
            End Site
            {
              OFFSET 16.4037 0.713936 2.7358
            }
          }
        }
        JOINT LeftShoulder
        {
          OFFSET 27.5574 4.95586 2.47156
          CHANNELS 3 Zrotation Xrotation Yrotation
          JOINT LeftArm
          {
            OFFSET 1.20734 -0.998971 20.1238
            CHANNELS 3 Zrotation Xrotation Yrotation
            JOINT LeftForeArm
            {
              OFFSET 26.8049 -0.0536703 -0.155908
              CHANNELS 3 Zrotation Xrotation Yrotation
              JOINT LeftHand
              {
                OFFSET 26.6817 0 0.320147
                CHANNELS 3 Zrotation Xrotation Yrotation
                End Site
                {
                  OFFSET 18.6119 0 0.382219
                }
              }
            }
          }
        }
        JOINT RightShoulder
        {
          OFFSET 27.5927 4.71444 -2.65209
          CHANNELS 3 Zrotation Xrotation Yrotation
          JOINT RightArm
          {
            OFFSET 2.83739 -1.17114 -18.7564
            CHANNELS 3 Zrotation Xrotation Yrotation
            JOINT RightForeArm
            {
              OFFSET 28.839 -0.0548439 1.22491
              CHANNELS 3 Zrotation Xrotation Yrotation
              JOINT RightHand
              {
                OFFSET 26.5114 0 -0.101894
                CHANNELS 3 Zrotation Xrotation Yrotation
                End Site
                {
                  OFFSET 18.2168 0 0
                }
              }
            }
          }
        }
      }
    }
  }
  JOINT LeftUpLeg
  {
    OFFSET -4.76168 -1.9167 -10.2353
    CHANNELS 3 Zrotation Xrotation Yrotation
    JOINT LeftLeg
    {
      OFFSET 2.55951 -42.0585 -8.02213
      CHANNELS 3 Zrotation Xrotation Yrotation
      JOINT LeftFoot
      {
        OFFSET 3.16357 -42.5282 -3.95426
        CHANNELS 3 Zrotation Xrotation Yrotation
        JOINT LeftToeBase
        {
          OFFSET 0.346054 -6.02161 12.8035
          CHANNELS 3 Zrotation Xrotation Yrotation
          End Site
          {
            OFFSET 0.134235 -1.35082 5.13018
          }
        }
      }
    }
  }
  JOINT RightUpLeg
  {
    OFFSET -4.94151 -1.41743 10.6446
    CHANNELS 3 Zrotation Xrotation Yrotation
    JOINT RightLeg
    {
      OFFSET -2.56294 -42.0364 -7.94377
      CHANNELS 3 Zrotation Xrotation Yrotation
      JOINT RightFoot
      {
        OFFSET -3.0952 -42.555 -4.02241
        CHANNELS 3 Zrotation Xrotation Yrotation
        JOINT RightToeBase
        {
          OFFSET -0.0828122 -6.13587 12.8035
          CHANNELS 3 Zrotation Xrotation Yrotation
          End Site
          {
            OFFSET -0.131328 -1.35082 5.13018
          }
        }
      }
    }
  }
}
MOTION
Frames:	15
Frame Time:	0.0333333
-12.7887 98.0074 -40.2915 -10.2189 -68.2262 -101.755 -70.1915 0 88.8779 56.6673 67.8844 34.402 7.99858 21.5889 -2.28773 -159.967 20.4448 176.34 -160.596 59.9572 -173.012 -0.665333 -16.7674 -36.7458 -62.8207 44.0743 -91.1673 9.93809 17.8026 -29.7201 0.420957 0.000575439 0.35866 -2.46177 6.69428 50.8308 -64.1754 -29.889 96.4536 1.77751 -17.1898 22.7631 0.58676 0.000331137 0.0646653 -51.8144 -2.2946 98.3214 -0.88836 22.4472 -6.87593 1.24471 -9.95576 -0.929384 -0.2874 1.6161 -2.19845 -53.2134 2.66218 82.3232 3.088 15.2098 9.76637 -27.0613 3.32631 4.19132 2.30921 -18.6616 0.262219 
-12.7872 98.0301 -40.2656 -10.2598 -68.1836 -101.813 -70.1915 0 88.8779 56.4851 67.8477 34.6153 8.03482 21.6018 -2.29144 -159.907 20.4764 176.341 -160.527 59.9832 -173.061 -0.665435 -16.7637 -36.7625 -62.9185 44.1422 -91.0515 10.1165 17.8756 -29.952 0.420957 0.000575439 0.35866 -2.46006 6.68453 50.8501 -62.6479 -29.7872 97.0677 2.02714 -15.905 23.1782 0.58676 0.000331137 0.0646653 -51.8538 -2.3481 98.2946 -0.864564 22.3484 -6.93595 0.988329 -9.94459 -0.918076 -0.332362 1.52094 -1.78072 -53.1469 2.62996 82.3381 3.02139 15.4055 9.24592 -27.0626 2.85159 4.12019 2.23732 -18.1527 1.21662 
-12.8277 98.0641 -40.2163 -10.5738 -68.2088 -102.104 -70.1915 0 88.8779 56.4717 67.8841 34.6975 8.09019 21.6536 -2.34989 -159.833 20.4894 176.197 -160.175 59.9663 -173.343 -0.655884 -16.7492 -36.673 -62.6009 44.2358 -91.2671 10.1215 17.7122 -30.1004 0.420957 0.000575439 0.35866 -2.45497 6.6504 50.9576 -61.7718 -29.7205 97.3887 2.40842 -15.2721 23.5541 0.58676 0.000331137 0.0646653 -51.9684 -2.27388 98.3283 -0.870902 22.3383 -6.84771 0.737155 -10.1939 -0.925718 -0.631766 2.1593 -1.68929 -53.2407 2.74483 82.3596 3.00619 15.317 9.87173 -26.6498 3.31196 4.12495 2.2778 -18.4079 -0.0993128 
-12.799 98.0406 -40.2052 -10.5421 -68.2923 -102.078 -70.1915 0 88.8779 57.2607 67.9818 34.1112 7.9203 21.6653 -2.6115 -159.802 20.4166 176.136 -160.228 59.8956 -173.294 -0.625855 -16.678 -36.4871 -62.5785 44.2799 -91.3819 10.4053 18.2142 -30.1435 0.420957 0.000575439 0.35866 -2.4458 6.58671 51.1665 -60.916 -29.5076 97.7693 2.31886 -14.3831 23.6826 0.58676 0.000331137 0.0646653 -52.0095 -2.33942 98.2841 -0.785689 22.3913 -6.64612 0.860384 -10.3544 -0.941885 -0.667292 2.46831 -2.1435 -53.344 2.7012 82.2826 3.11928 15.2632 10.6295 -27.0215 3.88128 4.27237 2.35265 -19.1328 -1.61504 
-12.8374 98.0022 -40.1608 -10.4317 -68.2698 -101.863 -70.1915 0 88.8779 57.2026 67.901 34.2058 7.96586 21.5791 -2.48357 -159.849 20.3771 176.282 -160.242 59.8595 -173.275 -0.609932 -16.6228 -36.4621 -62.3356 44.3383 -91.6145 10.2508 18.0544 -30.0203 0.420957 0.000575439 0.35866 -2.44511 6.6363 50.8949 -60.2588 -29.7391 98.2623 2.30225 -14.0299 23.7537 0.58676 0.000331137 0.0646653 -52.0599 -2.21704 98.2951 -0.826049 22.2386 -6.82277 1.98773 -9.99564 -0.96486 -0.220678 1.40665 -2.08526 -53.3955 2.92296 82.3429 3.11907 15.2539 11.6805 -27.6576 4.83199 4.53299 2.43241 -20.1583 -4.6983 
-12.8164 97.9979 -40.1295 -10.5691 -68.2386 -102.021 -70.1915 0 88.8779 57.3568 67.9116 34.213 7.99909 21.5817 -2.51078 -160.046 20.4727 176.569 -160.246 59.9678 -173.207 -0.595708 -16.5502 -36.539 -61.6975 44.2984 -92.0919 9.79666 17.3587 -29.8537 0.420957 0.000575439 0.35866 -2.44255 6.65798 50.7456 -60.4458 -29.863 98.3237 2.23236 -14.2501 23.6614 0.58676 0.000331137 0.0646653 -52.1538 -2.31579 98.2329 -0.787479 22.0547 -6.88978 2.40378 -9.68422 -0.960729 -0.0247185 0.885348 -1.92828 -53.318 2.90222 82.3303 3.09826 15.3415 11.5948 -27.3992 4.68962 4.46759 2.43063 -20.0073 -4.34848 
-12.8472 98.0547 -40.1216 -10.7445 -68.3548 -102.383 -70.1915 0 88.8779 57.6088 68.1248 33.6322 7.82293 21.6446 -2.29631 -160.034 20.5492 176.738 -160.838 60.0993 -172.571 -0.63407 -16.6739 -36.6377 -61.3527 44.2661 -92.1736 9.57455 16.947 -29.8353 0.420957 0.000575439 0.35866 -2.44963 6.63137 50.9846 -59.4914 -29.7243 98.4345 2.6992 -13.1716 24.2019 0.58676 0.000331137 0.0646653 -52.333 -2.49276 98.22 -0.742526 22.0487 -6.82269 0.905821 -9.93619 -0.915495 -0.38531 1.61852 -1.72188 -53.3016 2.69396 82.3066 2.95959 15.6213 10.7506 -26.6286 3.70153 4.1792 2.32086 -18.8632 -1.67998 
-12.8967 97.9923 -40.0897 -10.7068 -68.2409 -102.322 -70.1915 0 88.8779 57.1583 67.9853 34.0514 7.94822 21.5688 -2.15416 -160.006 20.5465 176.904 -160.858 60.1059 -172.426 -0.651795 -16.7244 -36.7088 -61.6055 44.3664 -91.8894 9.53119 16.8848 -29.8152 0.420957 0.000575439 0.35866 -2.47561 6.75259 50.7108 -59.7379 -30.0818 98.4136 2.63211 -13.266 24.1339 0.58676 0.000331137 0.0646653 -52.1318 -2.38146 98.1795 -0.735802 22.1005 -5.86023 1.75345 -10.4171 -0.977999 -0.275115 2.40799 -3.87326 -53.2091 2.77726 82.3462 2.97891 15.7012 10.7895 -27.4901 3.75245 4.33064 2.36223 -19.2409 -2.48789 
-12.9231 97.9505 -40.0351 -10.517 -68.1355 -102.078 -70.1915 0 88.8779 56.6252 67.7477 34.6562 8.18903 21.4543 -2.09223 -160.084 20.5342 177.192 -161.211 60.1288 -172.027 -0.648823 -16.6919 -36.7992 -61.7334 44.3898 -91.7291 9.39152 16.685 -29.7498 0.420957 0.000575439 0.35866 -2.46135 6.76302 50.4645 -60.3283 -30.1311 98.5077 1.8917 -13.9195 23.5171 0.58676 0.000331137 0.0646653 -52.002 -2.37451 98.1006 -0.683069 22.1337 -5.77702 2.54723 -10.2573 -0.999249 -0.0418047 1.95981 -4.11675 -53.1216 2.81874 82.3646 2.99285 15.7268 10.1845 -27.8412 3.32479 4.32094 2.35117 -19.0349 -1.53306 
-12.9492 97.9992 -39.9729 -10.2382 -68.1379 -101.804 -70.1915 0 88.8779 56.3879 67.5846 34.886 8.45059 21.3391 -2.09107 -160.481 20.4845 177.582 -162.042 60.146 -171.457 -0.613305 -16.5736 -36.7294 -62.2143 44.547 -91.5598 9.50898 16.9911 -29.6862 0.420957 0.000575439 0.35866 -2.45978 6.83012 50.0959 -61.0856 -30.6672 98.3986 2.10035 -14.7075 23.4792 0.58676 0.000331137 0.0646653 -52.0524 -2.45167 98.1197 -0.672347 22.2063 -6.93276 1.72313 -9.74671 -0.936162 -0.0304332 0.707661 -1.49885 -53.1432 2.75013 82.3298 2.99193 15.726 9.83601 -27.4068 3.07929 4.21008 2.30861 -18.7023 -0.507697 
-12.972 98.0051 -39.9159 -9.9187 -68.0554 -101.44 -70.1915 0 88.8779 56.2508 67.4365 35.1691 8.6109 21.2944 -2.29692 -160.622 20.5065 177.366 -161.835 60.1448 -171.849 -0.586281 -16.5031 -36.585 -62.3973 44.6731 -91.6139 9.35146 17.0321 -29.4132 0.420957 0.000575439 0.35866 -2.48989 6.90248 50.1499 -61.5967 -30.8331 98.0376 2.37599 -14.9198 23.5981 0.58676 0.000331137 0.0646653 -51.9699 -2.38773 98.1363 -0.718021 22.1914 -6.95777 1.77394 -9.73174 -0.936798 -0.0303053 0.740943 -1.58842 -53.1423 2.78628 82.2675 3.13003 15.5203 10.9382 -27.3972 4.09871 4.36952 2.41885 -19.7931 -3.03808 
-13.0589 97.9767 -39.854 -9.70927 -67.9844 -101.27 -70.1915 0 88.8779 55.5071 67.3324 35.6085 8.65462 21.3049 -2.12859 -160.366 20.5265 177.005 -161.915 60.1557 -171.821 -0.626972 -16.6487 -36.6299 -62.0595 44.6269 -91.631 8.88254 16.3249 -29.2268 0.420957 0.000575439 0.35866 -2.48818 6.88375 50.2194 -61.396 -30.7509 98.0699 2.15569 -14.6274 23.521 0.58676 0.000331137 0.0646653 -51.9745 -2.31444 98.1431 -0.813513 22.0298 -6.46776 2.42192 -9.64692 -0.959751 0.202006 0.840575 -2.96246 -53.0072 2.78002 82.247 3.11453 15.707 10.614 -27.4121 3.72648 4.312 2.40703 -19.5693 -2.58127 
-13.0762 97.9931 -39.7787 -9.69804 -67.9983 -101.309 -70.1915 0 88.8779 55.6518 67.3298 35.6333 8.65549 21.3485 -2.41159 -160.198 20.5203 176.797 -161.288 60.1026 -172.262 -0.647302 -16.719 -36.6603 -62.0392 44.5806 -91.507 8.61023 16.1288 -28.9874 0.420957 0.000575439 0.35866 -2.49422 6.96055 49.9212 -62.3821 -31.2779 97.7824 2.17351 -15.6626 23.3175 0.58676 0.000331137 0.0646653 -51.9308 -2.39383 98.1438 -0.732896 22.2785 -6.79776 1.67546 -9.99229 -0.953627 -0.103051 1.22388 -2.24686 -52.9818 2.63063 82.2339 3.07516 16.0001 9.18862 -27.1286 2.30513 4.04515 2.21271 -17.9628 0.450452 
-13.1469 98.053 -39.6919 -9.56028 -68.0435 -101.188 -70.1915 0 88.8779 55.6047 67.3394 35.6424 8.65889 21.3846 -2.53478 -160.013 20.5401 176.416 -160.693 60.0692 -172.799 -0.659241 -16.7738 -36.6222 -62.035 44.5448 -91.5677 8.06246 15.8875 -28.4313 0.420957 0.000575439 0.35866 -2.50291 6.90661 50.3051 -62.2539 -30.8212 97.646 1.94365 -15.4206 23.2225 0.58676 0.000331137 0.0646653 -51.9657 -2.35709 98.2381 -0.753696 22.5033 -7.58963 0.441595 -10.2103 -0.914961 -0.600589 1.55054 -0.562054 -53.0664 2.65154 82.3191 2.94122 16.0077 8.33991 -26.3315 1.64433 3.82178 2.03524 -16.9285 2.39371 
-13.1757 97.9828 -39.6493 -9.34586 -68.0177 -100.927 -70.1915 0 88.8779 55.6069 67.3281 35.5946 8.56812 21.3782 -2.47273 -160.008 20.5487 176.445 -161.08 60.1033 -172.548 -0.661971 -16.7962 -36.5725 -63.2329 44.7061 -90.8912 7.77237 16.3724 -27.872 0.420957 0.000575439 0.35866 -2.49639 6.89607 50.2702 -62.0487 -30.7103 97.7038 1.82036 -15.3281 23.168 0.58676 0.000331137 0.0646653 -52.0934 -2.29734 98.1529 -0.770472 22.0566 -6.76512 2.08336 -10.052 -0.968908 -0.0648606 1.36228 -2.76126 -53.0044 2.72967 82.185 3.1399 16.0741 10.112 -26.9924 3.11113 4.15922 2.39933 -18.8766 -1.81921 
